<mxfile host="app.diagrams.net" modified="2024-01-18T07:39:23.297Z" agent="Mozilla/5.0 (Windows NT 10.0; Win64; x64) AppleWebKit/537.36 (KHTML, like Gecko) Chrome/120.0.0.0 Safari/537.36" etag="Vn53bff27CXguU62WkKc" version="22.1.21" type="github">
  <diagram name="Trang-1" id="zD0Yp92a-7xttzoYHKWb">
    <mxGraphModel dx="2140" dy="706" grid="1" gridSize="10" guides="1" tooltips="1" connect="1" arrows="1" fold="1" page="1" pageScale="1" pageWidth="827" pageHeight="1169" math="0" shadow="0">
      <root>
        <mxCell id="0" />
        <mxCell id="1" parent="0" />
        <mxCell id="UPJY3cduDGVZuTllh0rK-2" value="Admin&lt;br&gt;" style="shape=umlActor;verticalLabelPosition=bottom;verticalAlign=top;html=1;" parent="1" vertex="1">
          <mxGeometry x="890" y="335" width="30" height="60" as="geometry" />
        </mxCell>
        <mxCell id="UPJY3cduDGVZuTllh0rK-9" value="Web User&lt;br&gt;" style="shape=umlActor;verticalLabelPosition=bottom;verticalAlign=top;html=1;" parent="1" vertex="1">
          <mxGeometry x="-120" y="340" width="30" height="60" as="geometry" />
        </mxCell>
        <mxCell id="UPJY3cduDGVZuTllh0rK-10" value="Webnghenhac" style="html=1;whiteSpace=wrap;spacingBottom=800;" parent="1" vertex="1">
          <mxGeometry x="149" y="80" width="530" height="865" as="geometry" />
        </mxCell>
        <mxCell id="UPJY3cduDGVZuTllh0rK-11" value="Chỉnh sửa thông tin sản phẩm" style="ellipse;whiteSpace=wrap;html=1;" parent="1" vertex="1">
          <mxGeometry x="500" y="470" width="100" height="50" as="geometry" />
        </mxCell>
        <mxCell id="UPJY3cduDGVZuTllh0rK-12" value="Đăng ký" style="ellipse;whiteSpace=wrap;html=1;" parent="1" vertex="1">
          <mxGeometry x="190" y="120" width="100" height="50" as="geometry" />
        </mxCell>
        <mxCell id="UPJY3cduDGVZuTllh0rK-13" value="Use Case" style="ellipse;whiteSpace=wrap;html=1;" parent="1" vertex="1">
          <mxGeometry x="350" y="560" width="100" height="50" as="geometry" />
        </mxCell>
        <mxCell id="UPJY3cduDGVZuTllh0rK-14" value="Liên kết tài khoản google,.." style="ellipse;whiteSpace=wrap;html=1;" parent="1" vertex="1">
          <mxGeometry x="464" y="340" width="100" height="50" as="geometry" />
        </mxCell>
        <mxCell id="UPJY3cduDGVZuTllh0rK-15" value="Xem thông tin bài hát" style="ellipse;whiteSpace=wrap;html=1;" parent="1" vertex="1">
          <mxGeometry x="220" y="720" width="100" height="50" as="geometry" />
        </mxCell>
        <mxCell id="UPJY3cduDGVZuTllh0rK-16" value="Xem thông tin nghệ sĩ" style="ellipse;whiteSpace=wrap;html=1;" parent="1" vertex="1">
          <mxGeometry x="190" y="650" width="100" height="50" as="geometry" />
        </mxCell>
        <mxCell id="UPJY3cduDGVZuTllh0rK-17" value="Nghe nhạc trực tuyến" style="ellipse;whiteSpace=wrap;html=1;" parent="1" vertex="1">
          <mxGeometry x="190" y="420" width="100" height="50" as="geometry" />
        </mxCell>
        <mxCell id="UPJY3cduDGVZuTllh0rK-18" value="Tìm kiếm âm nhạc" style="ellipse;whiteSpace=wrap;html=1;" parent="1" vertex="1">
          <mxGeometry x="190" y="500" width="100" height="50" as="geometry" />
        </mxCell>
        <mxCell id="UPJY3cduDGVZuTllh0rK-19" value="Thêm vào giỏ hàng" style="ellipse;whiteSpace=wrap;html=1;" parent="1" vertex="1">
          <mxGeometry x="500" y="260" width="100" height="50" as="geometry" />
        </mxCell>
        <mxCell id="UPJY3cduDGVZuTllh0rK-20" value="Thanh toán" style="ellipse;whiteSpace=wrap;html=1;" parent="1" vertex="1">
          <mxGeometry x="220" y="870" width="100" height="50" as="geometry" />
        </mxCell>
        <mxCell id="UPJY3cduDGVZuTllh0rK-21" value="Bình luận" style="ellipse;whiteSpace=wrap;html=1;" parent="1" vertex="1">
          <mxGeometry x="220" y="790" width="100" height="50" as="geometry" />
        </mxCell>
        <mxCell id="UPJY3cduDGVZuTllh0rK-22" value="Tải nhạc" style="ellipse;whiteSpace=wrap;html=1;" parent="1" vertex="1">
          <mxGeometry x="190" y="580" width="100" height="50" as="geometry" />
        </mxCell>
        <mxCell id="UPJY3cduDGVZuTllh0rK-23" value="Quên mật khẩu" style="ellipse;whiteSpace=wrap;html=1;" parent="1" vertex="1">
          <mxGeometry x="190" y="270" width="100" height="50" as="geometry" />
        </mxCell>
        <mxCell id="UPJY3cduDGVZuTllh0rK-24" value="Đăng xuất" style="ellipse;whiteSpace=wrap;html=1;" parent="1" vertex="1">
          <mxGeometry x="190" y="335" width="100" height="50" as="geometry" />
        </mxCell>
        <mxCell id="UPJY3cduDGVZuTllh0rK-25" value="Đăng nhập" style="ellipse;whiteSpace=wrap;html=1;" parent="1" vertex="1">
          <mxGeometry x="190" y="200" width="100" height="50" as="geometry" />
        </mxCell>
        <mxCell id="UPJY3cduDGVZuTllh0rK-27" value="Đăng và xóa sản phẩm" style="ellipse;whiteSpace=wrap;html=1;" parent="1" vertex="1">
          <mxGeometry x="510" y="550" width="100" height="50" as="geometry" />
        </mxCell>
        <mxCell id="UPJY3cduDGVZuTllh0rK-28" value="Hỗ trợ khách hàng" style="ellipse;whiteSpace=wrap;html=1;" parent="1" vertex="1">
          <mxGeometry x="520" y="640" width="100" height="50" as="geometry" />
        </mxCell>
      </root>
    </mxGraphModel>
  </diagram>
</mxfile>
